<mxfile host="app.diagrams.net" modified="2023-03-28T07:03:27.000Z" agent="Mozilla/5.0 (Windows NT 10.0; Win64; x64) AppleWebKit/537.36 (KHTML, like Gecko) Chrome/111.0.0.0 Safari/537.36" etag="JfYfVGdv_O0Bf4cZB2wg" version="21.1.1" type="github">
  <diagram name="Page-1" id="ntlwcirGqWGYWwClvYJs">
    <mxGraphModel dx="1437" dy="696" grid="1" gridSize="10" guides="1" tooltips="1" connect="1" arrows="1" fold="1" page="1" pageScale="1" pageWidth="827" pageHeight="1169" math="0" shadow="0">
      <root>
        <mxCell id="0" />
        <mxCell id="1" parent="0" />
        <mxCell id="eY2_cheVj6THHlVWZL7n-2" value="" style="rounded=0;whiteSpace=wrap;html=1;fillColor=none;" vertex="1" parent="1">
          <mxGeometry x="40" y="40" width="430" height="530" as="geometry" />
        </mxCell>
        <mxCell id="eY2_cheVj6THHlVWZL7n-3" value="&lt;font style=&quot;font-size: 14px;&quot;&gt;Source gNb - CU1&lt;/font&gt;" style="text;html=1;strokeColor=none;fillColor=none;align=center;verticalAlign=middle;whiteSpace=wrap;rounded=0;" vertex="1" parent="1">
          <mxGeometry x="185" y="50" width="130" height="30" as="geometry" />
        </mxCell>
        <mxCell id="eY2_cheVj6THHlVWZL7n-4" value="" style="rounded=0;whiteSpace=wrap;html=1;fillColor=none;" vertex="1" parent="1">
          <mxGeometry x="540" y="40" width="420" height="530" as="geometry" />
        </mxCell>
        <mxCell id="eY2_cheVj6THHlVWZL7n-5" value="&lt;font style=&quot;font-size: 14px;&quot;&gt;Target gNb - CU2&lt;/font&gt;" style="text;html=1;strokeColor=none;fillColor=none;align=center;verticalAlign=middle;whiteSpace=wrap;rounded=0;" vertex="1" parent="1">
          <mxGeometry x="685" y="50" width="130" height="30" as="geometry" />
        </mxCell>
        <mxCell id="eY2_cheVj6THHlVWZL7n-6" value="Source gNb-DU" style="rounded=0;whiteSpace=wrap;html=1;" vertex="1" parent="1">
          <mxGeometry x="60" y="80" width="95" height="40" as="geometry" />
        </mxCell>
        <mxCell id="eY2_cheVj6THHlVWZL7n-7" value="Source gNb-CU1-UP" style="rounded=0;whiteSpace=wrap;html=1;" vertex="1" parent="1">
          <mxGeometry x="200" y="80" width="100" height="40" as="geometry" />
        </mxCell>
        <mxCell id="eY2_cheVj6THHlVWZL7n-8" value="Source gNb-CU1-CP" style="rounded=0;whiteSpace=wrap;html=1;" vertex="1" parent="1">
          <mxGeometry x="340" y="80" width="100" height="40" as="geometry" />
        </mxCell>
        <mxCell id="eY2_cheVj6THHlVWZL7n-9" value="Target gNb-DU" style="rounded=0;whiteSpace=wrap;html=1;" vertex="1" parent="1">
          <mxGeometry x="560" y="80" width="95" height="40" as="geometry" />
        </mxCell>
        <mxCell id="eY2_cheVj6THHlVWZL7n-10" value="Target gNb-CU2-UP" style="rounded=0;whiteSpace=wrap;html=1;" vertex="1" parent="1">
          <mxGeometry x="700" y="80" width="100" height="40" as="geometry" />
        </mxCell>
        <mxCell id="eY2_cheVj6THHlVWZL7n-11" value="Target gNb-CU2-CP" style="rounded=0;whiteSpace=wrap;html=1;" vertex="1" parent="1">
          <mxGeometry x="840" y="80" width="100" height="40" as="geometry" />
        </mxCell>
        <mxCell id="eY2_cheVj6THHlVWZL7n-12" value="AMF\UPF" style="rounded=0;whiteSpace=wrap;html=1;" vertex="1" parent="1">
          <mxGeometry x="1040" y="80" width="100" height="40" as="geometry" />
        </mxCell>
        <mxCell id="eY2_cheVj6THHlVWZL7n-13" value="" style="endArrow=none;html=1;rounded=0;entryX=0.5;entryY=1;entryDx=0;entryDy=0;exitX=0.157;exitY=0.962;exitDx=0;exitDy=0;exitPerimeter=0;" edge="1" parent="1" source="eY2_cheVj6THHlVWZL7n-2" target="eY2_cheVj6THHlVWZL7n-6">
          <mxGeometry width="50" height="50" relative="1" as="geometry">
            <mxPoint x="70" y="210" as="sourcePoint" />
            <mxPoint x="120" y="160" as="targetPoint" />
          </mxGeometry>
        </mxCell>
        <mxCell id="eY2_cheVj6THHlVWZL7n-14" value="" style="endArrow=none;html=1;rounded=0;entryX=0.5;entryY=1;entryDx=0;entryDy=0;exitX=0.157;exitY=0.962;exitDx=0;exitDy=0;exitPerimeter=0;" edge="1" parent="1">
          <mxGeometry width="50" height="50" relative="1" as="geometry">
            <mxPoint x="250" y="550" as="sourcePoint" />
            <mxPoint x="250" y="120" as="targetPoint" />
          </mxGeometry>
        </mxCell>
        <mxCell id="eY2_cheVj6THHlVWZL7n-15" value="" style="endArrow=none;html=1;rounded=0;entryX=0.5;entryY=1;entryDx=0;entryDy=0;exitX=0.157;exitY=0.962;exitDx=0;exitDy=0;exitPerimeter=0;" edge="1" parent="1">
          <mxGeometry width="50" height="50" relative="1" as="geometry">
            <mxPoint x="389.5" y="550" as="sourcePoint" />
            <mxPoint x="389.5" y="120" as="targetPoint" />
          </mxGeometry>
        </mxCell>
        <mxCell id="eY2_cheVj6THHlVWZL7n-16" value="" style="endArrow=none;html=1;rounded=0;entryX=0.5;entryY=1;entryDx=0;entryDy=0;exitX=0.157;exitY=0.962;exitDx=0;exitDy=0;exitPerimeter=0;" edge="1" parent="1">
          <mxGeometry width="50" height="50" relative="1" as="geometry">
            <mxPoint x="607" y="550" as="sourcePoint" />
            <mxPoint x="607" y="120" as="targetPoint" />
          </mxGeometry>
        </mxCell>
        <mxCell id="eY2_cheVj6THHlVWZL7n-17" value="" style="endArrow=none;html=1;rounded=0;entryX=0.5;entryY=1;entryDx=0;entryDy=0;exitX=0.157;exitY=0.962;exitDx=0;exitDy=0;exitPerimeter=0;" edge="1" parent="1">
          <mxGeometry width="50" height="50" relative="1" as="geometry">
            <mxPoint x="749.5" y="550" as="sourcePoint" />
            <mxPoint x="749.5" y="120" as="targetPoint" />
          </mxGeometry>
        </mxCell>
        <mxCell id="eY2_cheVj6THHlVWZL7n-18" value="" style="endArrow=none;html=1;rounded=0;entryX=0.5;entryY=1;entryDx=0;entryDy=0;exitX=0.157;exitY=0.962;exitDx=0;exitDy=0;exitPerimeter=0;" edge="1" parent="1">
          <mxGeometry width="50" height="50" relative="1" as="geometry">
            <mxPoint x="889.5" y="550" as="sourcePoint" />
            <mxPoint x="889.5" y="120" as="targetPoint" />
          </mxGeometry>
        </mxCell>
        <mxCell id="eY2_cheVj6THHlVWZL7n-19" value="" style="endArrow=none;html=1;rounded=0;entryX=0.5;entryY=1;entryDx=0;entryDy=0;exitX=0.157;exitY=0.962;exitDx=0;exitDy=0;exitPerimeter=0;" edge="1" parent="1">
          <mxGeometry width="50" height="50" relative="1" as="geometry">
            <mxPoint x="1089.5" y="550" as="sourcePoint" />
            <mxPoint x="1089.5" y="120" as="targetPoint" />
          </mxGeometry>
        </mxCell>
      </root>
    </mxGraphModel>
  </diagram>
</mxfile>
